<svg id="Layer_2" data-name="Layer 2" xmlns="http://www.w3.org/2000/svg" width="250" height="250" viewBox="0 0 250 250">
  <g>
    <path d="M124.99987,0H245a5,5,0,0,1,5,5V125.00012A124.99988,124.99988,0,0,1,125.00012,250h-.00025A124.99988,124.99988,0,0,1,0,125.00013v-.00025A124.99987,124.99987,0,0,1,124.99987,0Z" style="fill: #aeb4c1"/>
    <circle cx="124.99125" cy="125.00526" r="105" style="fill: #c7d0dd;stroke: #fff;stroke-miterlimit: 10;stroke-width: 4px"/>
    <path d="M334.55439,132.00526l31.87685,0a1.56,1.56,0,0,1,1.56,1.56l0,31.87685a1.56,1.56,0,0,1-2.6631,1.1031l-31.87685-31.87686A1.56,1.56,0,0,1,334.55439,132.00526Z" transform="translate(-125 -125)" style="fill: #fff"/>
    <path d="M317.33108,154.00526l27.323,0a1.33716,1.33716,0,0,1,1.33716,1.33715l0,27.323a1.33715,1.33715,0,0,1-2.28266.94551l-27.323-27.323A1.33716,1.33716,0,0,1,317.33108,154.00526Z" transform="translate(-125 -125)" style="fill: #fff"/>
  </g>
</svg>
